<svg id="Layer_1" data-name="Layer 1" xmlns="http://www.w3.org/2000/svg" viewBox="0 0 2000 2000"><defs><style>.cls-1{fill:none;}.cls-2{fill:#90c9ed;}.cls-3{fill:#008e6d;}.cls-4{fill:#54c0a1;}.cls-16,.cls-5{fill:#d9e3f3;}.cls-6{fill:#231f20;}.cls-7{fill:#fbc3a8;}.cls-8{fill:#eb7360;}.cls-9{fill:#75b2e1;}.cls-10{fill:#fff;}.cls-11{fill:#1f3966;}.cls-12{fill:#5c1e14;}.cls-13{fill:#2b100e;}.cls-14{fill:#ffd682;}.cls-14,.cls-15,.cls-16{fill-rule:evenodd;}.cls-15{fill:#f8c378;}</style></defs><path class="cls-1" d="M1219.75,620.87h0Z"/><path class="cls-1" d="M1201.65,620.13l.56.61h0l-.57-.61Z"/><path class="cls-1" d="M1220,620.89a59.51,59.51,0,0,1,10.73,1.79,59.51,59.51,0,0,0-10.73-1.8Z"/><path class="cls-2" d="M1638.42,1244.35l-106.51-29.19a49,49,0,0,0-60.24,34.32l-5.82,21.25c11,54.36,13.13,103.51,2.67,142.4a49.46,49.46,0,0,0,8.29,3.1l106.51,29.19a49,49,0,0,0,60.24-34.33l29.19-106.51A49,49,0,0,0,1638.42,1244.35Z"/><path class="cls-3" d="M714.66,1128.43l-337.89,40a60.2,60.2,0,0,1-25.93-2.59l.77,3.73A60.39,60.39,0,0,0,423,1216.45l283.67-58.58c.3-1.16.59-2.32.89-3.49C709.79,1145.43,712.18,1136.8,714.66,1128.43Z"/><path class="cls-4" d="M376.77,1168.38l337.89-40a566.17,566.17,0,0,1,22.57-62.94,21.53,21.53,0,0,1-11.16,4.74l-66.79,7.9a21.68,21.68,0,0,1-24.07-19l-7.89-66.41a21.68,21.68,0,0,1,19-24.08l66.79-7.9a21.69,21.69,0,0,1,24.07,19l7.89,66.41c.07.62.11,1.23.13,1.84,16.57-34.54,35.07-61.84,54.18-83.4L775.14,760.76a60.39,60.39,0,0,0-67.06-52.84l-10.24,1.21,2.88,24.26a21.08,21.08,0,0,1-18.45,23.41l-3.21.38a21.07,21.07,0,0,1-23.4-18.44l-2.88-24.28L381.1,746.58,384,770.84a21.08,21.08,0,0,1-18.45,23.41l-3.21.38a21.07,21.07,0,0,1-23.4-18.44L336,751.91l-8.57,1A60.39,60.39,0,0,0,274.6,820l35.11,295.52a60.38,60.38,0,0,0,67.06,52.84ZM630.39,834.72l66.78-7.9a21.61,21.61,0,0,1,14.25,3.28L725.91,808a10,10,0,1,1,16.72,11l-20.81,31.7,7.31,61.5a21.68,21.68,0,0,1-19,24.08l-66.78,7.9a21.68,21.68,0,0,1-24.07-19l-7.89-66.4A21.67,21.67,0,0,1,630.39,834.72ZM604.28,995.45l7.89,66.41a21.68,21.68,0,0,1-19,24.08l-66.78,7.9a21.68,21.68,0,0,1-24.07-19l-7.89-66.4a21.68,21.68,0,0,1,19-24.09l66.78-7.9A21.69,21.69,0,0,1,604.28,995.45Zm-106.77-145,66.78-7.89a21.67,21.67,0,0,1,24.07,19l7.89,66.4a21.68,21.68,0,0,1-19,24.08l-66.78,7.9a21.69,21.69,0,0,1-24.08-19l-7.89-66.4A21.69,21.69,0,0,1,497.51,850.43ZM354.81,956.48l-7.89-66.4a21.68,21.68,0,0,1,19-24.09l66.79-7.89a21.67,21.67,0,0,1,24.07,19l7.89,66.4a21.68,21.68,0,0,1-19,24.08l-66.79,7.9A21.68,21.68,0,0,1,354.81,956.48Zm27,43.46L448.6,992a21.68,21.68,0,0,1,24.07,19l7.89,66.41a21.66,21.66,0,0,1-19,24.08l-66.78,7.9a21.68,21.68,0,0,1-24.07-19l-7.89-66.4A21.68,21.68,0,0,1,381.82,999.94Z"/><path class="cls-3" d="M362.32,794.63l3.21-.38A21.08,21.08,0,0,0,384,770.84l-2.88-24.26-3-25.28a21.05,21.05,0,0,0-23.39-18.43l-3.22.38A21.05,21.05,0,0,0,333,726.65l3,25.26,2.88,24.28A21.07,21.07,0,0,0,362.32,794.63Z"/><path class="cls-3" d="M679.06,757.18l3.21-.38a21.08,21.08,0,0,0,18.45-23.41l-2.88-24.26-3-25.28a21.05,21.05,0,0,0-23.39-18.43l-3.22.38a21.06,21.06,0,0,0-18.45,23.4l3,25.26,2.88,24.28A21.07,21.07,0,0,0,679.06,757.18Z"/><rect class="cls-5" x="350.48" y="861.66" width="110.6" height="110.23" rx="21.68" transform="translate(-104.84 53.99) rotate(-6.74)"/><rect class="cls-5" x="482.09" y="846.1" width="110.6" height="110.23" rx="21.68" transform="translate(-102.1 69.33) rotate(-6.74)"/><path class="cls-5" d="M619.3,925.21a21.68,21.68,0,0,0,24.07,19l66.78-7.9a21.68,21.68,0,0,0,19-24.08l-7.31-61.5L690.5,898.44a20.83,20.83,0,0,1-27.73,6.64l-.79-.45-23.44-19.75a10,10,0,1,1,12.89-15.29l21.64,18.23a.81.81,0,0,0,.71-.36l37.64-57.36a21.61,21.61,0,0,0-14.25-3.28l-66.78,7.9a21.67,21.67,0,0,0-19,24.09Z"/><rect class="cls-5" x="366.4" y="995.61" width="110.6" height="110.23" rx="21.68" transform="translate(-120.46 56.78) rotate(-6.74)"/><rect class="cls-5" x="498" y="980.05" width="110.6" height="110.23" rx="21.68" transform="translate(-117.72 72.13) rotate(-6.74)"/><path class="cls-5" d="M737.16,979.74a21.69,21.69,0,0,0-24.07-19l-66.79,7.9a21.68,21.68,0,0,0-19,24.08l7.89,66.41a21.68,21.68,0,0,0,24.07,19l66.79-7.9a21.53,21.53,0,0,0,11.16-4.74q3.9-9,7.95-17.5c0-.61-.06-1.22-.13-1.84Z"/><path class="cls-3" d="M673.07,887.82l-21.64-18.23a10,10,0,1,0-12.89,15.29L662,904.63l.79.45a20.83,20.83,0,0,0,27.73-6.64l31.32-47.74L742.63,819a10,10,0,1,0-16.72-11L711.42,830.1l-37.64,57.36A.81.81,0,0,1,673.07,887.82Z"/><path class="cls-6" d="M1377.7,1496.72a2.49,2.49,0,0,0-3.12-1.66c-.47.14-48.21,14.15-129.14-5.88a2.5,2.5,0,0,0-1.2,4.86,362.33,362.33,0,0,0,73.92,10.83c3.57.13,7,.19,10.25.19,29.88,0,46.48-4.87,47.63-5.22a2.51,2.51,0,0,0,1.37-1A2.45,2.45,0,0,0,1377.7,1496.72Z"/><path class="cls-5" d="M975.17,898.7c0-1.83,0-3.51-.07-5.07l-.12.06C975,895.29,975.1,897,975.17,898.7Z"/><path class="cls-5" d="M1209.66,1034.85l6.4,3.66a2.49,2.49,0,0,1,.93,3.41.7.7,0,0,1-.08.1l7.39,4.76.21.15a384.12,384.12,0,0,0,2-48.41l-16.14,30.55A8,8,0,0,0,1209.66,1034.85Z"/><path class="cls-5" d="M1172.05,1479.18c3.74.86,7.57-2,8.56-6.32a8.62,8.62,0,0,0-.79-6.12,6.42,6.42,0,0,0-4.2-3.27,5.52,5.52,0,0,0-1.34-.16,6.65,6.65,0,0,0-3.86,1.29,9,9,0,0,0-2.57,11.31A6.45,6.45,0,0,0,1172.05,1479.18Z"/><path class="cls-5" d="M1268.51,906.15c-26.42-13-52.59-17.08-78.67-19.53h0C1215.92,889.07,1242.09,893.11,1268.51,906.15Z"/><path class="cls-5" d="M975.19,883.18c0-1.1.06-1.67.06-1.67l-.52,0c0,.52,0,1.07,0,1.62Z"/><path class="cls-5" d="M1465.85,1270.73c-11.39-56.44-32.28-118.49-58.44-180.55-45.7-108.38-90-157.74-133.6-181.29l-38.3,72.5c.15,1.71.3,3.41.42,5.15,3.1,44.88-4.33,102.48-22.06,171.24a40.85,40.85,0,1,1-13.08-2.15c1.1,0,2.19.06,3.27.14,9-34.82,14.91-65.1,18.41-91.45-19.82,25.33-76.26,83.08-146.61,127.54a2.47,2.47,0,0,1,.29,1.14c0,.38.11,39.66-2.64,125.42a2.5,2.5,0,0,1-2.5,2.42h-.08a2.51,2.51,0,0,1-2.42-2.58c2.75-85.65,2.64-124.86,2.64-125.24a2.55,2.55,0,0,1,.62-1.65c-75.87-48.12-135.42-111.56-150-132.71a8.42,8.42,0,0,1,2.37-11.88l9.13-5.88-.07-.08a2.5,2.5,0,0,1,.9-3.42l4.73-2.78a8,8,0,0,0-.71-5.55l-20.8-39.36c-9.69,46.11-8.79,95-7.59,118.09a27.09,27.09,0,0,1,29.13,24l4,36.16a27.1,27.1,0,0,1-24,29.9l-3.29.36a16,16,0,0,1-17.65-14.15l-6.41-58.22a16,16,0,0,1,8.31-15.82c-1-17.8-2-52.69,2.35-89.8a343.61,343.61,0,0,1,8-44.16l-36.72-69.49c-23.78,11.94-49.41,30.2-74,58-19.11,21.56-37.61,48.86-54.18,83.4q-4,8.46-7.95,17.5a566.17,566.17,0,0,0-22.57,62.94c-2.48,8.37-4.87,17-7.14,26-.3,1.17-.59,2.33-.89,3.49-74,291.76-51.44,308.41-1.62,331.66,24.48,11.42,79.4,17.55,129.11,20.84-1.26,62-1.4,128.58-1.29,174h46.54a2.5,2.5,0,0,1,2.5,2.5h73.46a2.49,2.49,0,0,1,2.5-2.5h372.41c-3.24-49.56-8.35-127-12.08-179.47a362.33,362.33,0,0,1-73.92-10.83,2.5,2.5,0,0,1,1.2-4.86c80.93,20,128.67,6,129.14,5.88a2.49,2.49,0,0,1,3.12,1.66,2.45,2.45,0,0,1-.29,2.07c50.67-10.09,79.14-41.16,91.11-85.66C1479,1374.24,1476.82,1325.09,1465.85,1270.73ZM1372,1391.15c-17.51,45-114.22,105.6-170.36,103.38,0,0,2.34-10.36,4.73-25.6-2.49,13.84-4.71,25-4.91,26.09a2.51,2.51,0,0,1-1.92,2c-76.63,16.75-167.71,20.83-238.26,20.83-66.36,0-114.56-3.61-115.54-3.69a2.5,2.5,0,0,1,.38-5c2,.15,202.92,15.18,350.75-16.7,1.86-9.54,11.36-58.75,11.72-74.66,1.1-48.39-12-59.53-14-60.93-18.84-3.34-37.88-6.53-56.94-9.57,7.3,11,24.23,47.67,5,135.29a2.5,2.5,0,0,1-2.44,2,2.47,2.47,0,0,1-.54,0,2.5,2.5,0,0,1-1.9-3c11.86-54,9.42-87.73,5.28-106.5-4.45-20.23-11.77-27.86-11.84-27.93a2.52,2.52,0,0,1-.56-.9c-181.76-28.65-361.86-43.51-363.87-43.67a2.5,2.5,0,1,1,.41-5c.36,0,6.52.53,17.43,1.51-22.79-43.2-14.53-64.92-7.07-69.89a11,11,0,0,1,2.05-1.05l0-.09a2.48,2.48,0,0,1,1.57-3.14c.47-.16,6.8-2.11,18.33,1.09-7.23-21.15-2.42-34.32,2.57-41.44a6.55,6.55,0,0,1,10.82.11c3.77,5.62,10.55,14.81,22.11,27.94,1.59-35.53.95-84.1.95-84.68a2.49,2.49,0,0,1,2.46-2.53h0a2.51,2.51,0,0,1,2.5,2.46c0,.61.7,54.06-1.2,90.06,8.55,9.45,19.34,20.66,32.88,33.78,39.22,38,48.6,55.2,50.81,61.64,79.31,9.08,178.56,22,272.55,38.73a2.29,2.29,0,0,1,.67.22,9.93,9.93,0,0,1,2,1.44c6-8.16,42.28-55.38,90.4-76.41-2-86.37,3.69-154.71,3.77-155.61a2.5,2.5,0,1,1,5,.43c-.08.88-5.65,68-3.79,153.14,25.72-10.08,54.56-12.32,83.82,2.82a10.51,10.51,0,0,1,5.41,6.88c1.21,5.11,1.36,14.17-5.4,27.45C1366.56,1334.46,1389.48,1346.13,1372,1391.15Zm-209.8,77.53a13.62,13.62,0,0,1,5.35-8.16,11.26,11.26,0,0,1,16.66,3.79,13.64,13.64,0,0,1,1.3,9.66c-1.4,6.14-6.55,10.36-12.12,10.36a11.18,11.18,0,0,1-9.89-6A13.64,13.64,0,0,1,1162.18,1468.68Z"/><path class="cls-2" d="M1297.77,1122.08a2.5,2.5,0,1,0-5-.43c-.08.9-5.75,69.24-3.77,155.61q2.46-1.07,5-2C1292.12,1190.06,1297.69,1123,1297.77,1122.08Z"/><path class="cls-7" d="M1383.21,1284.92a10.51,10.51,0,0,0-5.41-6.88c-29.26-15.14-58.1-12.9-83.82-2.82q-2.51,1-5,2c-48.12,21-84.39,68.25-90.4,76.41,4.71,4.16,16,18.88,15,64.22-.23,10.2-4,32.89-7.22,51-2.39,15.24-4.73,25.6-4.73,25.6,56.14,2.22,152.85-58.36,170.36-103.38s-5.42-56.69,5.83-78.78C1384.57,1299.09,1384.42,1290,1383.21,1284.92Zm-64.59,75.24a2.47,2.47,0,0,1-1.94-.92,2.51,2.51,0,0,1,.36-3.52c21-17,52.69-27.38,54-27.81a2.5,2.5,0,1,1,1.53,4.76c-.32.1-32.18,10.48-52.4,26.93A2.48,2.48,0,0,1,1318.62,1360.16Zm57.61-1.64a2.5,2.5,0,0,1,0,3.54,169.24,169.24,0,0,1-41.81,29.67,2.56,2.56,0,0,1-1.1.25,2.5,2.5,0,0,1-1.1-4.74c23.25-11.36,40.28-28.52,40.45-28.69A2.49,2.49,0,0,1,1376.23,1358.52Zm.48-53.08c-.52-.1-40.47-7.4-71.86,20.26a2.5,2.5,0,1,1-3.31-3.75c33.34-29.38,74.4-21.75,76.13-21.42a2.5,2.5,0,0,1-1,4.91Z"/><path class="cls-8" d="M1379.64,1303.47a2.5,2.5,0,0,0-2-2.94c-1.73-.33-42.79-8-76.13,21.42a2.5,2.5,0,1,0,3.31,3.75c31.39-27.66,71.34-20.36,71.86-20.26A2.5,2.5,0,0,0,1379.64,1303.47Z"/><path class="cls-8" d="M1374.22,1329.52a2.51,2.51,0,0,0-3.15-1.61c-1.34.43-33.06,10.76-54,27.81a2.51,2.51,0,0,0-.36,3.52,2.51,2.51,0,0,0,3.52.36c20.22-16.45,52.08-26.83,52.4-26.93A2.5,2.5,0,0,0,1374.22,1329.52Z"/><path class="cls-8" d="M1372.7,1358.55c-.17.17-17.2,17.33-40.45,28.69a2.5,2.5,0,0,0,1.1,4.74,2.56,2.56,0,0,0,1.1-.25,169.24,169.24,0,0,0,41.81-29.67,2.5,2.5,0,1,0-3.56-3.51Z"/><path class="cls-2" d="M840.91,1127.8a2.51,2.51,0,0,0-2.5-2.46h0a2.49,2.49,0,0,0-2.46,2.53c0,.58.64,49.15-.95,84.68,1.5,1.71,3.08,3.47,4.75,5.31C841.61,1181.86,840.91,1128.41,840.91,1127.8Z"/><path class="cls-7" d="M872.59,1251.64c-13.54-13.12-24.33-24.33-32.88-33.78-1.67-1.84-3.25-3.6-4.75-5.31-11.56-13.13-18.34-22.32-22.11-27.94a6.55,6.55,0,0,0-10.82-.11c-5,7.12-9.8,20.29-2.57,41.44,9.85,2.72,23.5,9.21,40.57,23.8a2.5,2.5,0,0,1-1.62,4.4,2.46,2.46,0,0,1-1.63-.6c-34.59-29.57-53.9-24-54.09-23.94a2.5,2.5,0,0,1-3.09-1.52,11,11,0,0,0-2.05,1.05c-7.46,5-15.72,26.69,7.07,69.89,25.17,2.26,75.66,7,138.78,14.26C921.19,1306.84,911.81,1289.64,872.59,1251.64Zm-43.93,23.23a2.5,2.5,0,0,1-3.48.65c-26.34-18-44.37-6.46-45.13-6a2.5,2.5,0,0,1-2.79-4.15c.86-.58,21.47-14.06,50.75,6A2.49,2.49,0,0,1,828.66,1274.87Z"/><path class="cls-8" d="M782.69,1229.6c.19-.06,19.5-5.63,54.09,23.94a2.46,2.46,0,0,0,1.63.6,2.5,2.5,0,0,0,1.62-4.4c-17.07-14.59-30.72-21.08-40.57-23.8-11.53-3.2-17.86-1.25-18.33-1.09a2.48,2.48,0,0,0-1.57,3.14l0,.09A2.5,2.5,0,0,0,782.69,1229.6Z"/><path class="cls-8" d="M828,1271.4c-29.28-20.05-49.89-6.57-50.75-6a2.5,2.5,0,0,0,2.79,4.15c.76-.5,18.79-12.07,45.13,6a2.5,2.5,0,1,0,2.83-4.12Z"/><path class="cls-2" d="M1198.62,1353.67a9.93,9.93,0,0,0-2-1.44,2.29,2.29,0,0,0-.67-.22c-94-16.7-193.24-29.65-272.55-38.73-63.12-7.22-113.61-12-138.78-14.26-10.91-1-17.07-1.48-17.43-1.51a2.5,2.5,0,1,0-.41,5c2,.16,182.11,15,363.87,43.67a2.52,2.52,0,0,0,.56.9c.07.07,7.39,7.7,11.84,27.93,4.14,18.77,6.58,52.49-5.28,106.5a2.5,2.5,0,0,0,1.9,3,2.47,2.47,0,0,0,.54,0,2.5,2.5,0,0,0,2.44-2c19.24-87.62,2.31-124.33-5-135.29,19.06,3,38.1,6.23,56.94,9.57,2,1.4,15.07,12.54,14,60.93-.36,15.91-9.86,65.12-11.72,74.66-147.83,31.88-348.73,16.85-350.75,16.7a2.5,2.5,0,0,0-.38,5c1,.08,49.18,3.69,115.54,3.69,70.55,0,161.63-4.08,238.26-20.83a2.51,2.51,0,0,0,1.92-2c.2-1,2.42-12.25,4.91-26.09,3.27-18.15,7-40.84,7.22-51C1214.6,1372.55,1203.33,1357.83,1198.62,1353.67Z"/><path class="cls-2" d="M1170.94,1484.06a11.24,11.24,0,0,0,2.43.27c5.57,0,10.72-4.22,12.12-10.36a13.64,13.64,0,0,0-1.3-9.66,11.26,11.26,0,0,0-16.66-3.79,14,14,0,0,0-4,17.82A11.35,11.35,0,0,0,1170.94,1484.06Zm-3.88-14.28a8.64,8.64,0,0,1,3.36-5.18,6.65,6.65,0,0,1,3.86-1.29,5.52,5.52,0,0,1,1.34.16,6.42,6.42,0,0,1,4.2,3.27,8.62,8.62,0,0,1,.79,6.12c-1,4.34-4.82,7.18-8.56,6.32a6.45,6.45,0,0,1-4.2-3.27A8.65,8.65,0,0,1,1167.06,1469.78Z"/><path class="cls-2" d="M1224.3,1046.78l-7.39-4.76a2.47,2.47,0,0,1-2.09,1.16,2.53,2.53,0,0,1-1.24-.33l-26-14.9a2.5,2.5,0,0,1,2.48-4.34l19.65,11.24a8,8,0,0,1,.66-5.78l16.14-30.55c-1.32-46.48-13-73.44-25.83-89s-27.59-21-37.07-22.8c7.33,150.74-80.85,292.21-89.26,305.33l0,.11-.62.89-.69-.88,0,0C992.45,1087,977.63,955.86,975.17,898.7c-.07-1.74-.13-3.41-.19-5-32.26,16.66-49.12,55.24-57.69,96l20.8,39.36a8,8,0,0,1,.71,5.55l22.43-13.15a2.5,2.5,0,1,1,2.52,4.31l-27.15,15.93a2.55,2.55,0,0,1-1.27.34,2.47,2.47,0,0,1-2.09-1.15l-9.13,5.88a8.42,8.42,0,0,0-2.37,11.88c14.61,21.15,74.16,84.59,150,132.71a2.55,2.55,0,0,0-.62,1.65c0,.38.11,39.59-2.64,125.24a2.51,2.51,0,0,0,2.42,2.58h.08a2.5,2.5,0,0,0,2.5-2.42c2.75-85.76,2.64-125,2.64-125.42a2.47,2.47,0,0,0-.29-1.14c70.35-44.46,126.79-102.21,146.61-127.54q1.2-9,2-17.39Z"/><path class="cls-2" d="M1208.14,902.87c15.17,18.28,24.36,44.69,27.37,78.52l38.3-72.5h0c-1.76-.94-3.51-1.85-5.27-2.72l0,0c-26.42-13-52.59-17.08-78.67-19.53A78.12,78.12,0,0,1,1208.14,902.87Z"/><path class="cls-2" d="M922.19,940.45c12.26-27.53,29.25-46.65,50.51-56.81a4.83,4.83,0,0,1,2-.48c0-.55,0-1.1,0-1.62h-.05l-5.19.41-.88.07-1.92.17-1.25.11-1.79.17-1.32.13-1.69.17-1.39.15-1.6.18-1.41.16-1.52.17-1.56.2-1.31.16-2.7.36-1.08.15-1.68.25-1.15.17-1.55.24-1.12.19-1.51.25-1.07.19-1.51.27-1,.19-1.6.32-.8.16c-.79.16-1.57.32-2.32.49-.21.05-.43.08-.65.11l-3.07.55-.18,0c-1,.18-2,.38-3,.59l-.2,0c-1,.21-2.09.44-3.15.67l-.09,0c-.92.21-1.86.42-2.8.65l-1.7.41-1.14.28-2,.52-.88.23-2.19.61-.73.2-2.33.68-.63.18-2.46.76-.53.16-2.6.85-.4.13-2.77.94-.25.09-2.93,1-.11,0c-.92.34-1.84.68-2.77,1l-1.75.68-1.06.42-1.91.78-.93.37-2,.84-.87.38-2,.89-.85.38-2,.94-.87.4-2.06,1-.87.42-2.08,1-.47.23h0l36.72,69.49A222.69,222.69,0,0,1,922.19,940.45Z"/><path class="cls-9" d="M935.33,1042.05a2.55,2.55,0,0,0,1.27-.34l27.15-15.93a2.5,2.5,0,1,0-2.52-4.31l-22.43,13.15-4.73,2.78a2.5,2.5,0,0,0-.9,3.42l.07.08A2.47,2.47,0,0,0,935.33,1042.05Z"/><path class="cls-9" d="M1216.06,1038.51l-6.4-3.66L1190,1023.61a2.5,2.5,0,0,0-2.48,4.34l26,14.9a2.53,2.53,0,0,0,1.24.33,2.47,2.47,0,0,0,2.09-1.16.7.7,0,0,0,.08-.1A2.49,2.49,0,0,0,1216.06,1038.51Z"/><path class="cls-10" d="M905.64,1108.23a15.73,15.73,0,0,0-5.84,1.83,16,16,0,0,0-8.31,15.82l6.41,58.22a16,16,0,0,0,17.65,14.15l3.29-.36a27.1,27.1,0,0,0,24-29.9l-4-36.16a27.09,27.09,0,0,0-29.13-24l-.77.07Z"/><path class="cls-11" d="M1153.68,885.82a43.12,43.12,0,0,1,9.88.86c9.48,1.81,24.2,7.17,37.07,22.8s24.51,42.56,25.83,89a384.12,384.12,0,0,1-2,48.41q-.84,8.38-2,17.39c-3.5,26.35-9.41,56.63-18.41,91.45a40.9,40.9,0,0,1,9.81,2c17.73-68.76,25.16-126.36,22.06-171.24-.12-1.74-.27-3.44-.42-5.15-3-33.83-12.2-60.24-27.37-78.52a78.12,78.12,0,0,0-18.3-16.25h0c-18.67-11.84-35.89-10.84-36.84-10.78l-.3,0,.44,9.92A4.77,4.77,0,0,0,1153.68,885.82Z"/><path class="cls-10" d="M1200.79,1155.63a41.78,41.78,0,1,0,3.27.14C1203,1155.69,1201.89,1155.63,1200.79,1155.63Zm14,40.85a14,14,0,1,1-14-14A14,14,0,0,1,1214.82,1196.48Z"/><circle class="cls-2" cx="1200.79" cy="1196.48" r="14.03" transform="translate(-494.34 1199.53) rotate(-45)"/><path class="cls-7" d="M1153.35,890.6l-.21-4.79-.44-9.92-3.4-77.4c-2.72,3.26-68.66,80.91-163.79,59-.15,9.06-.3,17.25-.41,23.1-.11,5.59-.18,9-.18,9S1054.21,948.3,1153.35,890.6Z"/><path class="cls-8" d="M1149.3,798.49l.09-.11c-24.63,22-54.28,35-86.61,35-28.16,0-54.4-9.53-77-26.32l-.44,50.36.22.05C1080.64,879.4,1146.58,801.75,1149.3,798.49Z"/><path class="cls-7" d="M962.31,626.74c.39,42.51,21,76.88,46.28,76.88,25.54,0,46.31-35,46.31-78.11s-20.77-78.12-46.31-78.12c-25,0-45.41,33.6-46.26,75.42a4,4,0,0,1,.5,2.33A4.08,4.08,0,0,1,962.31,626.74Zm46.28-2.71c6.66,0,12,10.22,12,22.84s-5.39,22.84-12,22.84-12-10.23-12-22.84S1001.94,624,1008.59,624Z"/><path class="cls-7" d="M1109.58,703.62c25.53,0,46.3-35,46.3-78.11s-20.77-78.12-46.3-78.12-46.31,35-46.31,78.12S1084,703.62,1109.58,703.62ZM1112.9,624c6.66,0,12,10.22,12,22.84s-5.39,22.84-12,22.84-12-10.23-12-22.84S1106.25,624,1112.9,624Z"/><path class="cls-7" d="M1149.39,798.38c24.42-21.86,43.9-52.65,56.14-88.61a59.91,59.91,0,0,0,9.83.81c28.81,0,52.16-20.12,52.16-44.94,0-20.22-15.5-37.32-36.82-43a59.51,59.51,0,0,0-10.73-1.79h-.22c-.63,0-1.27-.09-1.9-.11l-.23,0c-.75,0-1.5,0-2.26,0a60.14,60.14,0,0,0-12,1.2,57.75,57.75,0,0,0-12.88,4.24l-26.68,2.52c-.48,21.48-5.85,41.62-15.27,57-10.26,16.74-24.1,26-39,26s-28.73-9.22-39-26a101,101,0,0,1-11.51-28.22,100.69,100.69,0,0,1-11.5,28.22c-10.26,16.74-24.1,26-39,26s-28.72-9.22-39-26c-9.46-15.45-14.84-35.71-15.28-57.3l-48.76-4.6a4,4,0,0,1-3.46-2.91C875.19,622.63,854,642,854,665.64c0,24.82,23.35,44.94,52.15,44.94A60.28,60.28,0,0,0,919,709.2c13.68,41.66,37.15,76,66.73,97.87,22.65,16.79,48.89,26.32,77,26.32C1095.11,833.39,1124.76,820.43,1149.39,798.38Zm77.55-110.5c10.35-3.9,17-12.63,17-22.24,0-8.24-4.87-15.86-13-20.38a2.5,2.5,0,0,1,2.43-4.37c9.75,5.42,15.58,14.67,15.58,24.75,0,11.71-8,22.28-20.29,26.92a2.5,2.5,0,1,1-1.76-4.68Zm-110.62,68.31c1.26-.15,31-4.1,41.14-42.18a2.5,2.5,0,0,1,4.84,1.28c-11,41.49-45.07,45.82-45.41,45.86l-.29,0a2.5,2.5,0,0,1-.28-5ZM902.17,697.72h-.24c-18.73-1.84-32.85-15.63-32.85-32.07,0-12.43,8-23.54,20.77-29a2.5,2.5,0,0,1,2,4.6c-10.94,4.66-17.73,14-17.73,24.4,0,13.86,12.18,25.51,28.34,27.1a2.5,2.5,0,0,1-.25,5Zm150.4,19,3.34-47.24a2.5,2.5,0,0,1,5,.35l-3.34,47.24a3.12,3.12,0,0,0,2.56,3.3l12.79,2.31a2.5,2.5,0,0,1-.44,5,2.28,2.28,0,0,1-.45,0l-12.78-2.31A8.11,8.11,0,0,1,1052.57,716.71Z"/><path class="cls-7" d="M954.4,620.33c.76-20.72,6.09-40.08,15.21-55,10.26-16.74,24.1-26,39-26s28.73,9.22,39,26a100.75,100.75,0,0,1,11.5,28.23,101.06,101.06,0,0,1,11.51-28.23c10.26-16.74,24.1-26,39-26s28.72,9.22,39,26c9.17,15,14.5,34.45,15.23,55.28l35.5-3.35a54.73,54.73,0,0,1-5.94-10.31c-.58-1.28-1.14-2.61-1.67-4-.27-.69-.53-1.38-.78-2.08-.51-1.4-1-2.84-1.45-4.3-.23-.74-.46-1.48-.68-2.23-.44-1.5-.85-3-1.25-4.57s-.77-3.13-1.12-4.73c-1.24-5.58-2.23-11.41-3-17.29q-.18-1.26-.33-2.52c-.21-1.69-.41-3.37-.59-5.06-.45-4.21-.8-8.4-1.09-12.51-.11-1.65-.21-3.28-.3-4.9q-.19-3.63-.33-7.13c-.06-1.55-.11-3.07-.15-4.57s-.07-3-.09-4.4,0-2.84-.06-4.21c0-4.77,0-9.09.07-12.76,0-1,0-2,.07-3,.16-6.09.38-9.74.38-9.74-73,30.58-100.85-9.12-100.85-9.12C989.36,534,921.67,498.63,921.67,498.63c-12,34.7-15.27,68.56-16,88q-.18,13.84,0,29.22a4.43,4.43,0,0,1,.73,0Z"/><path class="cls-12" d="M1197.46,378.78c2.67,1.07,26.57-9.94,37.44-25.56,11.26-16.18,8.33-35.88-1.68-41.08s-28.38,3.55-34.56,22.26C1192,354.63,1195.89,378.16,1197.46,378.78Z"/><ellipse class="cls-13" cx="1008.59" cy="646.87" rx="12.04" ry="22.84"/><ellipse class="cls-13" cx="1112.9" cy="646.87" rx="12.04" ry="22.84"/><path class="cls-8" d="M1116.6,761.17l.29,0c.34,0,34.37-4.37,45.41-45.86a2.5,2.5,0,0,0-4.84-1.28c-10.13,38.08-39.88,42-41.14,42.18a2.5,2.5,0,0,0,.28,5Z"/><path class="cls-8" d="M1072.47,727.63a2.5,2.5,0,0,0,.44-5l-12.79-2.31a3.12,3.12,0,0,1-2.56-3.3l3.34-47.24a2.5,2.5,0,0,0-5-.35l-3.34,47.24a8.11,8.11,0,0,0,6.67,8.57l12.78,2.31A2.28,2.28,0,0,0,1072.47,727.63Z"/><path class="cls-8" d="M902.42,692.74c-16.16-1.59-28.34-13.24-28.34-27.1,0-10.39,6.79-19.74,17.73-24.4a2.5,2.5,0,0,0-2-4.6c-12.81,5.46-20.77,16.57-20.77,29,0,16.44,14.12,30.23,32.85,32.07h.24a2.5,2.5,0,0,0,.25-5Z"/><path class="cls-10" d="M905.57,623.76l48.76,4.6c.44,21.59,5.82,41.85,15.28,57.3,10.26,16.74,24.1,26,39,26s28.73-9.22,39-26a100.69,100.69,0,0,0,11.5-28.22,101,101,0,0,0,11.51,28.22c10.26,16.74,24.1,26,39,26s28.72-9.22,39-26c9.42-15.38,14.79-35.52,15.27-57l26.68-2.52a57.75,57.75,0,0,1,12.88-4.24c-.4-.37-.79-.76-1.18-1.16h0l-.56-.61h0l-.51-.58c-.25-.28-.5-.57-.74-.87l-.26-.32q-.42-.52-.84-1.08l-35.5,3.35c-.73-20.83-6.06-40.31-15.23-55.28-10.26-16.74-24.1-26-39-26s-28.73,9.22-39,26a101.06,101.06,0,0,0-11.51,28.23,100.75,100.75,0,0,0-11.5-28.23c-10.26-16.74-24.1-26-39-26s-28.72,9.22-39,26c-9.12,14.9-14.45,34.26-15.21,55l-48.07-4.54a4.43,4.43,0,0,0-.73,0,4,4,0,0,0-3.63,3.6,3.9,3.9,0,0,0,.14,1.45A4,4,0,0,0,905.57,623.76Zm204-76.37c25.53,0,46.3,35,46.3,78.12s-20.77,78.11-46.3,78.11-46.31-35-46.31-78.11S1084,547.39,1109.58,547.39ZM962.33,622.81c.85-41.82,21.27-75.42,46.26-75.42,25.54,0,46.31,35,46.31,78.12s-20.77,78.11-46.31,78.11c-25.28,0-45.89-34.37-46.28-76.88a4.08,4.08,0,0,0,.52-1.6A4,4,0,0,0,962.33,622.81Z"/><path class="cls-12" d="M1080.11,487.91S1108,527.61,1181,497c0,0-.22,3.65-.38,9.74,0,.93,0,1.93-.07,3-.07,3.67-.11,8-.07,12.76,0,1.37,0,2.77.06,4.21s0,2.9.09,4.4.09,3,.15,4.57q.13,3.5.33,7.13c.09,1.62.19,3.25.3,4.9.29,4.11.64,8.3,1.09,12.51.18,1.69.38,3.37.59,5.06q.15,1.26.33,2.52c.79,5.88,1.78,11.71,3,17.29.35,1.6.73,3.18,1.12,4.73s.81,3.07,1.25,4.57c.22.75.45,1.49.68,2.23.46,1.46.94,2.9,1.45,4.3.25.7.51,1.39.78,2.08.53,1.36,1.09,2.69,1.67,4a54.73,54.73,0,0,0,5.94,10.31q.42.56.84,1.08l.26.32c.24.3.49.59.74.87l.51.58.57.61c.39.4.78.79,1.18,1.16a60.14,60.14,0,0,1,12-1.2c.76,0,1.51,0,2.26,0l.23,0c.63,0,1.27.06,1.9.11h.22a59.51,59.51,0,0,1,10.73,1.8c6.85-8.07,16.42-26.54,27.2-68.19,40.32-155.73-75.83-155.73-75.83-155.73s-76.56-146.1-220.82-32.18c0,0-112.2-50.55-133.41,73.73-18.15,106.37,55.9,152,77.63,162.89,0,0-.27-6.24.15-16.62.78-19.39,4-53.25,16-88C921.67,498.63,989.36,534,1080.11,487.91Z"/><path class="cls-8" d="M1227.82,692.72a2.48,2.48,0,0,0,.88-.16c12.32-4.64,20.29-15.21,20.29-26.92,0-10.08-5.83-19.33-15.58-24.75a2.5,2.5,0,0,0-2.43,4.37c8.14,4.52,13,12.14,13,20.38,0,9.61-6.7,18.34-17,22.24a2.5,2.5,0,0,0,.88,4.84Z"/><path class="cls-11" d="M879.37,1684.34H485.09a2.5,2.5,0,1,0,0,5H879.37a2.5,2.5,0,0,0,2.5-2.5h0A2.5,2.5,0,0,0,879.37,1684.34Z"/><path class="cls-11" d="M955.33,1686.84h0a2.49,2.49,0,0,0,2.5,2.5h668.63a2.5,2.5,0,0,0,0-5H957.83A2.49,2.49,0,0,0,955.33,1686.84Z"/><path class="cls-11" d="M973,883.51h0l-.3.13c-21.26,10.16-38.25,29.28-50.51,56.81a222.69,222.69,0,0,0-12.08,35.65,343.61,343.61,0,0,0-8,44.16c-4.36,37.11-3.37,72-2.35,89.8a15.73,15.73,0,0,1,5.84-1.83l3.29-.36.77-.07c-1.2-23.08-2.1-72,7.59-118.09,8.57-40.78,25.43-79.36,57.69-96l.12-.06,9.82-4,.19-9.81S977.66,881.14,973,883.51Z"/><path class="cls-9" d="M979.6,881.09l-4.35.41h0s0,.35,0,1A46,46,0,0,1,979.6,881.09Z"/><path class="cls-9" d="M1163.56,886.68a43.12,43.12,0,0,0-9.88-.86,4.77,4.77,0,0,1-.54,0l.21,4.79c-99.14,57.7-168.43-1-168.43-1l-9.82,4c0,1.56,0,3.24.07,5.07,2.46,57.16,17.28,188.31,97.83,293.46l0,0,.69.88.62-.89,0-.11C1082.71,1178.89,1170.89,1037.42,1163.56,886.68Z"/><path class="cls-9" d="M985.1,880.58l-.18,9s.07-3.44.18-9Z"/><path class="cls-14" d="M1584,545a141.79,141.79,0,0,0-92.1,249.6l-13.43,33.61a8.82,8.82,0,0,0,11.88,11.29l43.52-20A141.81,141.81,0,1,0,1584,545Z"/><path class="cls-15" d="M1587.74,683.59c26.39-39.65-13.31-39.48,3.49-64.72,16.2-24.34,17.92-36.81,48.75-16.27,3.23,2.7,38.44,16.9-19,103.14s-84.11,59.27-87.85,57.33c-30.91-20.58-20-26.92-3.79-51.26C1546.17,686.56,1561.35,723.24,1587.74,683.59Z"/><path class="cls-16" d="M553,1427.49l-10.4,45.76a7.17,7.17,0,0,0,9.11,8.44l44.84-13.87a7.17,7.17,0,0,0,2.75-12.11l-34.43-31.9A7.18,7.18,0,0,0,553,1427.49Z"/></svg>